<svg id="Layer_1" data-name="Layer 1" xmlns="http://www.w3.org/2000/svg" viewBox="0 0 2185.3 118.83"><defs><style>.cls-1{fill:#fff;}</style></defs><path class="cls-1" d="M1004.34,229.08H950.9V115.31h50.55c28.72,0,41,12.28,41,30.88,0,12.82-8.67,21.85-21,23.84,13.72,2.53,24.38,11.55,24.38,27.81C1045.88,217.52,1030.89,229.08,1004.34,229.08Zm-31.42-66.46H1000c13.54,0,19.32-6,19.32-14.44s-5.78-14.63-19.32-14.63H972.92Zm0,17.16v31.06h28.9c14.08,0,20.94-6,20.94-15.35,0-9.57-6.86-15.71-20.94-15.71Z" transform="translate(-113.88 -113.15)"/><path class="cls-1" d="M1083,115.31V229.08h-22.57V115.31Z" transform="translate(-113.88 -113.15)"/><path class="cls-1" d="M1188.06,229.08h-85V115.31h83.42V134.1h-61.21v27.62h48v18.6h-48v30h62.84Z" transform="translate(-113.88 -113.15)"/><path class="cls-1" d="M1454,115.31V229.08H1431.4V115.31Z" transform="translate(-113.88 -113.15)"/><path class="cls-1" d="M1533.65,115.31l46.41,113.77h-24l-11.38-28.17h-48.4l-11,28.17h-22.75l46-113.77Zm-30.51,68.26h34.67L1520.65,141h-.72Z" transform="translate(-113.88 -113.15)"/><path class="cls-1" d="M1611.26,115.31v95h60.13v18.78h-82.7V115.31Z" transform="translate(-113.88 -113.15)"/><polygon class="cls-1" points="1275.38 2.17 1275.38 79.73 1203.93 2.17 1182.25 2.17 1182.25 79.73 1110.8 2.17 1089.13 2.17 1089.13 115.93 1110.07 115.93 1110.07 31.73 1189.24 115.93 1203.2 115.93 1203.2 31.73 1282.37 115.93 1296.32 115.93 1296.32 2.17 1275.38 2.17"/><path class="cls-1" d="M149.73,229.81v-95H113.88V116h94.81v18.78H172.3v95Z" transform="translate(-113.88 -113.15)"/><path class="cls-1" d="M722,229.81v-95H686.09V116h94.82v18.78H744.52v95Z" transform="translate(-113.88 -113.15)"/><path class="cls-1" d="M270,232c-33.22,0-57.78-24-57.78-59.05s24.56-59,57.78-59c33,0,57.6,24,57.6,59S303,232,270,232Zm0-98.23c-20.94,0-34.31,15.35-34.31,39.18S249,212.11,270,212.11s34.31-15.35,34.31-39.19S290.93,133.74,270,133.74Z" transform="translate(-113.88 -113.15)"/><path class="cls-1" d="M503.32,232c-33.23,0-57.79-24-57.79-59.05s24.56-59,57.79-59c33,0,57.6,24,57.6,59S536.36,232,503.32,232Zm0-98.23c-20.95,0-34.31,15.35-34.31,39.18s13.36,39.19,34.31,39.19,34.31-15.35,34.31-39.19S524.26,133.74,503.32,133.74Z" transform="translate(-113.88 -113.15)"/><path class="cls-1" d="M651.42,191.88V116h21V229.81H654.31l-58.15-80.18v80.18H575.22V116h22.39Z" transform="translate(-113.88 -113.15)"/><path class="cls-1" d="M839.71,232c-33.22,0-57.78-24-57.78-59.05s24.56-59,57.78-59c33,0,57.61,24,57.61,59S872.76,232,839.71,232Zm0-98.23c-20.94,0-34.3,15.35-34.3,39.18s13.36,39.19,34.3,39.19S874,196.76,874,172.92,860.66,133.74,839.71,133.74Z" transform="translate(-113.88 -113.15)"/><path class="cls-1" d="M436.83,229.69l-29.58-41.57c17-5,26.35-17.12,26.35-34.89,0-23.65-16.62-37.2-45.69-37.2H342.58V229.81H365V190.62h19l28.42,39.3ZM365,134.27h22.21c17,0,24.39,6.86,24.39,19.14s-7.41,18.79-24.39,18.79H365Z" transform="translate(-113.88 -113.15)"/><path class="cls-1" d="M2240.21,229.08v-95h-35.86V115.31h94.82V134.1h-36.39v95Z" transform="translate(-113.88 -113.15)"/><path class="cls-1" d="M1784.75,231.24c-33.22,0-57.78-24-57.78-59s24.56-59,57.78-59c33,0,57.6,24,57.6,59S1817.8,231.24,1784.75,231.24Zm0-98.23c-21,0-34.31,15.35-34.31,39.19s13.36,39.18,34.31,39.18,34.31-15.35,34.31-39.18S1805.7,133,1784.75,133Z" transform="translate(-113.88 -113.15)"/><path class="cls-1" d="M1856,229.08V115.31h81.44V134.1h-58.87v30.33h45.51v18.42h-45.51v46.23Z" transform="translate(-113.88 -113.15)"/><path class="cls-1" d="M2048.79,115.31l46.41,113.77h-24l-11.37-28.17h-48.4l-11,28.17h-22.75l46-113.77Zm-30.51,68.26H2053L2035.79,141h-.72Z" transform="translate(-113.88 -113.15)"/><path class="cls-1" d="M2202.05,228.91l-29.58-41.57c17-5,26.35-17.12,26.35-34.89,0-23.65-16.62-37.2-45.69-37.2H2107.8V229h22.39V189.84h19l28.42,39.3Zm-71.86-95.42h22.21c17,0,24.38,6.86,24.38,19.14s-7.4,18.79-24.38,18.79h-22.21Z" transform="translate(-113.88 -113.15)"/></svg>